<svg xmlns="http://www.w3.org/2000/svg" xmlns:xlink="http://www.w3.org/1999/xlink" width="500" zoomAndPan="magnify" viewBox="0 0 375 374.999991" height="500" preserveAspectRatio="xMidYMid meet" version="1.0"><defs><g/><clipPath id="c32acb86e0"><path d="M 92.085938 152.53125 L 138 152.53125 L 138 198 L 92.085938 198 Z M 92.085938 152.53125 " clip-rule="nonzero"/></clipPath><clipPath id="a90edfd673"><path d="M 237 193 L 282.730469 193 L 282.730469 238.414062 L 237 238.414062 Z M 237 193 " clip-rule="nonzero"/></clipPath></defs><g clip-path="url(#c32acb86e0)"><path fill="#004aad" d="M 93.960938 197.421875 L 92.085938 197.421875 L 92.085938 152.019531 L 137.523438 152.019531 L 137.523438 153.894531 L 93.960938 153.894531 Z M 93.960938 197.421875 " fill-opacity="1" fill-rule="nonzero"/></g><g clip-path="url(#a90edfd673)"><path fill="#004aad" d="M 282.730469 238.613281 L 237.296875 238.613281 L 237.296875 236.742188 L 280.859375 236.742188 L 280.859375 193.210938 L 282.730469 193.210938 Z M 282.730469 238.613281 " fill-opacity="1" fill-rule="nonzero"/></g><g fill="#ecb365" fill-opacity="1"><g transform="translate(133.532727, 196.634226)"><g><path d="M 16.125 -2.9375 C 14.570312 -1.476562 12.734375 -0.75 10.609375 -0.75 C 9.429688 -0.75 8.382812 -0.953125 7.46875 -1.359375 C 6.5625 -1.773438 5.804688 -2.320312 5.203125 -3 C 4.597656 -3.6875 4.140625 -4.472656 3.828125 -5.359375 C 3.515625 -6.253906 3.359375 -7.1875 3.359375 -8.15625 C 3.359375 -9.1875 3.519531 -10.128906 3.84375 -10.984375 C 4.175781 -11.847656 4.632812 -12.585938 5.21875 -13.203125 C 5.8125 -13.828125 6.515625 -14.3125 7.328125 -14.65625 C 8.140625 -15.007812 9.023438 -15.1875 9.984375 -15.1875 C 10.628906 -15.1875 11.222656 -15.109375 11.765625 -14.953125 C 12.304688 -14.804688 12.785156 -14.609375 13.203125 -14.359375 C 13.617188 -14.117188 13.957031 -13.84375 14.21875 -13.53125 C 14.488281 -13.226562 14.675781 -12.914062 14.78125 -12.59375 L 16.453125 -12.59375 C 16.234375 -13.113281 15.941406 -13.59375 15.578125 -14.03125 C 15.222656 -14.46875 14.78125 -14.84375 14.25 -15.15625 C 13.71875 -15.476562 13.097656 -15.726562 12.390625 -15.90625 C 11.679688 -16.09375 10.867188 -16.1875 9.953125 -16.1875 C 8.640625 -16.1875 7.441406 -15.992188 6.359375 -15.609375 C 5.273438 -15.234375 4.34375 -14.691406 3.5625 -13.984375 C 2.789062 -13.285156 2.191406 -12.4375 1.765625 -11.4375 C 1.347656 -10.445312 1.140625 -9.335938 1.140625 -8.109375 C 1.140625 -7.054688 1.304688 -6.023438 1.640625 -5.015625 C 1.984375 -4.003906 2.507812 -3.109375 3.21875 -2.328125 C 3.9375 -1.546875 4.847656 -0.914062 5.953125 -0.4375 C 7.054688 0.03125 8.375 0.265625 9.90625 0.265625 C 10.882812 0.265625 11.753906 0.175781 12.515625 0 C 13.273438 -0.175781 13.941406 -0.394531 14.515625 -0.65625 C 15.085938 -0.925781 15.5625 -1.210938 15.9375 -1.515625 C 16.3125 -1.828125 16.597656 -2.09375 16.796875 -2.3125 Z M 16.125 -2.9375 "/></g></g></g><g fill="#ecb365" fill-opacity="1"><g transform="translate(153.325847, 196.634226)"><g><path d="M 1.140625 -7.953125 C 1.140625 -7.109375 1.300781 -6.203125 1.625 -5.234375 C 1.945312 -4.273438 2.457031 -3.382812 3.15625 -2.5625 C 3.851562 -1.75 4.738281 -1.070312 5.8125 -0.53125 C 6.894531 0 8.1875 0.265625 9.6875 0.265625 C 10.695312 0.265625 11.613281 0.140625 12.4375 -0.109375 C 13.269531 -0.359375 14.015625 -0.691406 14.671875 -1.109375 C 15.328125 -1.535156 15.898438 -2.023438 16.390625 -2.578125 C 16.878906 -3.128906 17.273438 -3.710938 17.578125 -4.328125 C 17.890625 -4.941406 18.125 -5.554688 18.28125 -6.171875 C 18.445312 -6.796875 18.53125 -7.390625 18.53125 -7.953125 C 18.53125 -8.804688 18.351562 -9.710938 18 -10.671875 C 17.65625 -11.640625 17.117188 -12.53125 16.390625 -13.34375 C 15.660156 -14.164062 14.738281 -14.84375 13.625 -15.375 C 12.507812 -15.914062 11.195312 -16.1875 9.6875 -16.1875 C 8.1875 -16.1875 6.894531 -15.921875 5.8125 -15.390625 C 4.738281 -14.859375 3.851562 -14.1875 3.15625 -13.375 C 2.457031 -12.5625 1.945312 -11.671875 1.625 -10.703125 C 1.300781 -9.734375 1.140625 -8.816406 1.140625 -7.953125 Z M 3.359375 -7.953125 C 3.359375 -9.015625 3.519531 -9.988281 3.84375 -10.875 C 4.175781 -11.757812 4.625 -12.519531 5.1875 -13.15625 C 5.757812 -13.800781 6.429688 -14.300781 7.203125 -14.65625 C 7.972656 -15.007812 8.816406 -15.1875 9.734375 -15.1875 C 10.628906 -15.1875 11.472656 -15.007812 12.265625 -14.65625 C 13.054688 -14.300781 13.75 -13.800781 14.34375 -13.15625 C 14.945312 -12.519531 15.421875 -11.757812 15.765625 -10.875 C 16.117188 -9.988281 16.296875 -9.015625 16.296875 -7.953125 C 16.296875 -6.890625 16.117188 -5.914062 15.765625 -5.03125 C 15.421875 -4.144531 14.945312 -3.382812 14.34375 -2.75 C 13.75 -2.113281 13.054688 -1.617188 12.265625 -1.265625 C 11.472656 -0.910156 10.628906 -0.734375 9.734375 -0.734375 C 8.816406 -0.734375 7.972656 -0.910156 7.203125 -1.265625 C 6.429688 -1.617188 5.757812 -2.113281 5.1875 -2.75 C 4.625 -3.382812 4.175781 -4.144531 3.84375 -5.03125 C 3.519531 -5.914062 3.359375 -6.890625 3.359375 -7.953125 Z M 3.359375 -7.953125 "/></g></g></g><g fill="#ecb365" fill-opacity="1"><g transform="translate(175.527571, 196.634226)"><g><path d="M 4.28125 -15.921875 L 2.734375 -15.921875 L 2.734375 0 L 3.734375 0 L 3.734375 -12.984375 L 3.8125 -12.984375 L 10.84375 0.265625 L 11.25 0.265625 L 18.4375 -12.890625 L 18.53125 -12.890625 L 18.53125 0 L 20.59375 0 L 20.59375 -15.921875 L 19.03125 -15.921875 L 11.65625 -2.25 L 11.578125 -2.25 Z M 4.28125 -15.921875 "/></g></g></g><g fill="#ecb365" fill-opacity="1"><g transform="translate(201.387627, 196.634226)"><g><path d="M 4.28125 -15.921875 L 2.734375 -15.921875 L 2.734375 0 L 3.734375 0 L 3.734375 -12.984375 L 3.8125 -12.984375 L 10.84375 0.265625 L 11.25 0.265625 L 18.4375 -12.890625 L 18.53125 -12.890625 L 18.53125 0 L 20.59375 0 L 20.59375 -15.921875 L 19.03125 -15.921875 L 11.65625 -2.25 L 11.578125 -2.25 Z M 4.28125 -15.921875 "/></g></g></g><g fill="#ecb365" fill-opacity="1"><g transform="translate(227.247685, 196.634226)"><g><path d="M 0.84375 -4.03125 C 0.875 -3.375 1.039062 -2.78125 1.34375 -2.25 C 1.65625 -1.71875 2.082031 -1.265625 2.625 -0.890625 C 3.164062 -0.523438 3.796875 -0.238281 4.515625 -0.03125 C 5.242188 0.164062 6.039062 0.265625 6.90625 0.265625 C 7.789062 0.265625 8.582031 0.160156 9.28125 -0.046875 C 9.988281 -0.253906 10.59375 -0.554688 11.09375 -0.953125 C 11.59375 -1.347656 11.976562 -1.828125 12.25 -2.390625 C 12.519531 -2.953125 12.65625 -3.570312 12.65625 -4.25 C 12.65625 -5.1875 12.421875 -5.953125 11.953125 -6.546875 C 11.484375 -7.148438 10.894531 -7.648438 10.1875 -8.046875 C 9.488281 -8.453125 8.722656 -8.789062 7.890625 -9.0625 C 7.066406 -9.34375 6.300781 -9.632812 5.59375 -9.9375 C 4.894531 -10.238281 4.3125 -10.585938 3.84375 -10.984375 C 3.375 -11.378906 3.140625 -11.898438 3.140625 -12.546875 C 3.140625 -12.910156 3.21875 -13.25 3.375 -13.5625 C 3.53125 -13.882812 3.765625 -14.160156 4.078125 -14.390625 C 4.390625 -14.628906 4.769531 -14.820312 5.21875 -14.96875 C 5.675781 -15.113281 6.203125 -15.1875 6.796875 -15.1875 C 7.785156 -15.1875 8.625 -14.976562 9.3125 -14.5625 C 10 -14.144531 10.40625 -13.488281 10.53125 -12.59375 L 12.078125 -12.59375 C 11.984375 -13.15625 11.773438 -13.660156 11.453125 -14.109375 C 11.140625 -14.554688 10.738281 -14.929688 10.25 -15.234375 C 9.769531 -15.546875 9.222656 -15.78125 8.609375 -15.9375 C 7.992188 -16.101562 7.351562 -16.1875 6.6875 -16.1875 C 5.988281 -16.1875 5.320312 -16.09375 4.6875 -15.90625 C 4.0625 -15.726562 3.507812 -15.460938 3.03125 -15.109375 C 2.550781 -14.765625 2.171875 -14.328125 1.890625 -13.796875 C 1.617188 -13.265625 1.484375 -12.660156 1.484375 -11.984375 C 1.484375 -11.085938 1.707031 -10.363281 2.15625 -9.8125 C 2.613281 -9.269531 3.1875 -8.816406 3.875 -8.453125 C 4.5625 -8.085938 5.304688 -7.773438 6.109375 -7.515625 C 6.921875 -7.265625 7.671875 -6.972656 8.359375 -6.640625 C 9.046875 -6.316406 9.613281 -5.921875 10.0625 -5.453125 C 10.519531 -4.984375 10.75 -4.351562 10.75 -3.5625 C 10.75 -2.582031 10.390625 -1.863281 9.671875 -1.40625 C 8.953125 -0.957031 7.992188 -0.734375 6.796875 -0.734375 C 5.835938 -0.734375 5.070312 -0.859375 4.5 -1.109375 C 3.925781 -1.359375 3.488281 -1.65625 3.1875 -2 C 2.882812 -2.351562 2.675781 -2.710938 2.5625 -3.078125 C 2.457031 -3.453125 2.398438 -3.769531 2.390625 -4.03125 Z M 0.84375 -4.03125 "/></g></g></g><g fill="#ecb365" fill-opacity="1"><g transform="translate(169.078573, 212.254545)"><g><path d="M 1.316406 0.078125 C 1.527344 0.078125 1.769531 0.0390625 1.929688 0 L 1.929688 -0.625 C 1.835938 -0.605469 1.703125 -0.59375 1.605469 -0.59375 C 1.410156 -0.59375 1.355469 -0.769531 1.355469 -0.832031 L 1.355469 -5.519531 L 0.597656 -5.519531 L 0.597656 -0.78125 C 0.597656 -0.210938 0.792969 0.078125 1.316406 0.078125 Z M 1.316406 0.078125 "/></g></g></g><g fill="#ecb365" fill-opacity="1"><g transform="translate(172.083075, 212.254545)"><g><path d="M 0.585938 -4.707031 L 1.402344 -4.707031 L 1.402344 -5.519531 L 0.585938 -5.519531 Z M 0.617188 0 L 1.371094 0 L 1.371094 -3.902344 L 0.617188 -3.902344 Z M 0.617188 0 "/></g></g></g><g fill="#ecb365" fill-opacity="1"><g transform="translate(174.95088, 212.254545)"><g><path d="M 1.582031 0 L 2.222656 0 L 3.738281 -3.902344 L 2.925781 -3.902344 L 1.902344 -0.980469 L 0.886719 -3.902344 L 0.0585938 -3.902344 Z M 1.582031 0 "/></g></g></g><g fill="#ecb365" fill-opacity="1"><g transform="translate(179.626979, 212.254545)"><g><path d="M 2.152344 0.0664062 C 2.789062 0.0664062 3.269531 -0.136719 3.695312 -0.585938 L 3.171875 -1.027344 C 2.882812 -0.710938 2.554688 -0.609375 2.152344 -0.609375 C 1.457031 -0.609375 1.125 -1.089844 1.089844 -1.703125 L 3.789062 -1.703125 C 3.800781 -1.765625 3.8125 -1.90625 3.8125 -2.035156 C 3.8125 -2.921875 3.402344 -3.96875 2.085938 -3.96875 C 0.867188 -3.96875 0.289062 -2.964844 0.289062 -1.933594 C 0.289062 -0.878906 0.890625 0.0664062 2.152344 0.0664062 Z M 1.089844 -2.277344 C 1.144531 -2.855469 1.441406 -3.339844 2.082031 -3.339844 C 2.742188 -3.339844 3.042969 -2.871094 3.078125 -2.277344 Z M 1.089844 -2.277344 "/></g></g></g><g fill="#ecb365" fill-opacity="1"><g transform="translate(184.61162, 212.254545)"><g/></g></g><g fill="#ecb365" fill-opacity="1"><g transform="translate(187.514575, 212.254545)"><g><path d="M 5.234375 0.417969 L 5.734375 -0.0625 L 4.957031 -0.824219 C 5.34375 -1.324219 5.535156 -2.023438 5.535156 -2.753906 C 5.535156 -4.277344 4.71875 -5.601562 2.96875 -5.601562 C 1.222656 -5.601562 0.40625 -4.277344 0.40625 -2.761719 C 0.40625 -1.242188 1.222656 0.078125 2.96875 0.078125 C 3.578125 0.078125 4.074219 -0.0742188 4.464844 -0.367188 Z M 2.96875 -0.660156 C 1.707031 -0.660156 1.199219 -1.644531 1.199219 -2.761719 C 1.199219 -3.875 1.707031 -4.859375 2.96875 -4.859375 C 4.234375 -4.859375 4.742188 -3.875 4.742188 -2.761719 C 4.742188 -2.25 4.636719 -1.773438 4.394531 -1.382812 L 3.632812 -2.125 L 3.140625 -1.648438 L 3.90625 -0.902344 C 3.660156 -0.746094 3.355469 -0.660156 2.96875 -0.660156 Z M 2.96875 -0.660156 "/></g></g></g><g fill="#ecb365" fill-opacity="1"><g transform="translate(194.479354, 212.254545)"><g><path d="M 5.066406 -0.207031 L 4.226562 -1.167969 C 4.472656 -1.59375 4.621094 -2.09375 4.65625 -2.632812 L 3.945312 -2.710938 C 3.925781 -2.363281 3.855469 -2.027344 3.734375 -1.734375 L 2.753906 -2.859375 C 3.316406 -3.234375 3.804688 -3.671875 3.804688 -4.34375 C 3.804688 -5.050781 3.203125 -5.585938 2.460938 -5.585938 C 1.730469 -5.585938 1.035156 -5.121094 1.035156 -4.339844 C 1.035156 -3.800781 1.464844 -3.289062 1.730469 -2.984375 C 1.0625 -2.574219 0.410156 -2.082031 0.410156 -1.230469 C 0.410156 -0.367188 1.160156 0.0859375 2.097656 0.0859375 C 2.789062 0.0859375 3.371094 -0.179688 3.804688 -0.613281 L 4.546875 0.25 Z M 1.738281 -4.328125 C 1.738281 -4.753906 2.097656 -4.980469 2.46875 -4.980469 C 2.859375 -4.980469 3.140625 -4.695312 3.140625 -4.335938 C 3.140625 -3.914062 2.761719 -3.617188 2.289062 -3.320312 C 2.050781 -3.59375 1.738281 -4.003906 1.738281 -4.328125 Z M 2.089844 -0.570312 C 1.558594 -0.570312 1.113281 -0.765625 1.113281 -1.226562 C 1.113281 -1.773438 1.613281 -2.136719 2.183594 -2.496094 L 3.363281 -1.125 C 3.058594 -0.78125 2.636719 -0.570312 2.089844 -0.570312 Z M 2.089844 -0.570312 "/></g></g></g><g fill="#ecb365" fill-opacity="1"><g transform="translate(200.745032, 212.254545)"><g><path d="M 0.152344 0 L 1.019531 0 L 1.445312 -1.199219 L 3.738281 -1.199219 L 4.160156 0 L 5.015625 0 L 2.890625 -5.519531 L 2.289062 -5.519531 Z M 1.710938 -1.898438 L 2.59375 -4.351562 L 3.46875 -1.898438 Z M 1.710938 -1.898438 "/></g></g></g><path stroke-linecap="round" transform="matrix(0.75301, 0, 0, 0.75, 124.781495, 209.139229)" fill="none" stroke-linejoin="miter" d="M 1.000865 1.001862 L 41.842171 1.001862 " stroke="#ffffff" stroke-width="2" stroke-opacity="1" stroke-miterlimit="4"/><path stroke-linecap="round" transform="matrix(0.754124, 0, 0, 0.75, 219.920395, 209.139229)" fill="none" stroke-linejoin="miter" d="M 1.001674 1.001862 L 38.793868 1.001862 " stroke="#ffffff" stroke-width="2" stroke-opacity="1" stroke-miterlimit="4"/></svg>